<?xml version="1.0" standalone="no"?>
<!DOCTYPE svg PUBLIC "-//W3C//DTD SVG 1.1//EN" "http://www.w3.org/Graphics/SVG/1.1/DTD/svg11.dtd" >
<svg xmlns="http://www.w3.org/2000/svg" xmlns:xlink="http://www.w3.org/1999/xlink" version="1.1">
<metadata>
Created by FontForge 20150824 at Sat Aug 13 05:55:28 2016
 By Everything Fonts
</metadata>
<defs>
<font id="icomoon" horiz-adv-x="0" >
  <font-face 
    font-family="icomoon"
    font-weight="400"
    font-stretch="normal"
    units-per-em="1024"
    panose-1="0 0 0 0 0 0 0 0 0 0"
    ascent="819"
    descent="-205"
    bbox="-17 -194 653 758.781"
    underline-thickness="0"
    underline-position="0"
    unicode-range="U+0001-FFFD"
  />
<missing-glyph horiz-adv-x="1024" 
 />
    <glyph glyph-name=".notdef" unicode="&#xfffd;" horiz-adv-x="1024" 
 />
    <glyph glyph-name="glyph1" 
d="M0 0v0v0v0z" />
    <glyph glyph-name="glyph1" 
d="M0 0v0v0v0z" />
    <glyph glyph-name="nonmarkingreturn" horiz-adv-x="341" 
 />
    <glyph glyph-name="uni0001" 
d="M0 0v0v0v0z" />
    <glyph glyph-name="space" unicode=" " horiz-adv-x="289" 
d="M0 0v0v0v0z" />
    <glyph glyph-name="comma" unicode="," horiz-adv-x="217" 
d="M20 -158q49 69 51 145v87h92v-75q0 -54 -26 -108q-26 -53 -65 -85z" />
    <glyph glyph-name="slash" unicode="/" horiz-adv-x="455" 
d="M14 -106l326 847h78l-325 -847h-79v0z" />
    <glyph glyph-name="zero" unicode="0" horiz-adv-x="485" 
d="M83 247q0 34 13 64t36 53q22 23 53 36q30 13 64 13q35 0 65 -13t53 -36t36 -53t13 -64q0 -35 -13 -65t-36 -53q-23 -22 -53 -35t-65 -13q-34 0 -64 13q-31 13 -53 35q-23 23 -36 53t-13 65v0zM163 247q0 -18 7 -33q7 -16 19 -28q11 -12 27 -18q16 -7 33 -7q18 0 34 7
q16 6 28 18q11 12 18 28q7 15 7 33t-7 34q-7 15 -18 27q-12 12 -28 19t-34 7q-17 0 -33 -7t-27 -19q-12 -12 -19 -27q-7 -16 -7 -34v0z" />
    <glyph glyph-name="one" unicode="1" horiz-adv-x="324" 
d="M170 -21q0 96 -3 190q-4 94 -16 181q-12 86 -33 162q-22 75 -59 133l82 52q40 -64 66 -148q27 -85 41 -192q6 -46 10 -95l6 -98q2 -48 3 -95t1 -90h-98v0z" />
    <glyph glyph-name="two" unicode="2" horiz-adv-x="557" 
d="M480 707q0 -1 2 -9q2 -9 3 -23q2 -14 3 -31v-38q-3 -114 -53 -173v0q-25 -30 -59 -45q-35 -15 -77 -15q-23 0 -42 3t-38 11l2 -14q1 -6 2 -13q6 -46 9 -95q4 -49 6 -97q2 -49 3 -96q1 -48 1 -90h-97q0 78 -2 155q-1 77 -8 149q-6 73 -19 140q-12 66 -34 122
q-10 26 -22 50t-27 50l82 52q8 -13 15 -26t13 -27q7 -14 13 -30q7 -15 15 -33q12 -26 23 -47t25 -36q15 -15 34 -23t46 -8q20 0 35 6t26 19q10 10 15 25q6 14 10 30t5 33t1 34q0 21 -2 40q-2 20 -4 33z" />
    <glyph glyph-name="three" unicode="3" horiz-adv-x="705" 
d="M637 713q8 -42 12 -78t4 -66q0 -93 -39 -142q-19 -22 -45 -34q-25 -11 -57 -11q-12 0 -26 3q-13 2 -27 9q-15 6 -28 18q-14 12 -26 30l-10 -15q-24 -27 -51 -40q-27 -14 -65 -14q-19 0 -33 2q-13 2 -29 8q2 -6 2 -12q1 -6 2 -11q6 -47 10 -96q4 -48 6 -96t2 -95
q1 -47 1 -91h-98q1 20 2 42v41q0 71 -5 139t-14 131q-10 63 -24 121q-15 58 -35 108q-1 2 -3 7q-1 2 -1 4q-8 19 -17 37t-21 36l89 53q4 -6 8 -15q5 -8 10 -18l10 -20q5 -11 9 -20q12 -24 23 -50q14 -30 24 -51q10 -20 20 -33q11 -13 25 -18q14 -6 37 -6q16 0 24 5
q9 5 17 15q14 16 22 45t9 69v19l-2 28q-1 15 -2 27q0 13 -1 16l97 12v-5v0l1 -5q1 -5 2 -17t2 -28q3 -30 8 -64q5 -33 13 -58q6 -18 13 -28q6 -10 12 -14q6 -5 11 -6q4 -2 7 -2q13 0 19 4q5 3 8 6q2 3 5 8q4 6 6 16q3 9 5 23t2 34q0 21 -4 52q-3 31 -11 73z" />
    <glyph glyph-name="four" unicode="4" horiz-adv-x="616" 
d="M390 342q-29 0 -57 5q-29 5 -52 14q-16 7 -31 16q-14 10 -27 21l5 -34q7 -47 10 -95q4 -49 6 -97t3 -95t1 -91h-98q0 96 -4 190q-3 94 -15 181q-12 86 -33 162q-22 75 -59 133l82 52q17 -28 32 -59t26 -62q6 16 15 32t21 30v-1q27 33 67 53q39 20 83 22q33 1 70 -9
q36 -11 71 -34q22 -15 35 -27q14 -12 19 -16l6 -6l-70 -68l-5 5v0l-14 12q-13 12 -20 16q-7 3 -26 15q-20 12 -30 11t-32 4h1q-24 -1 -45 -12t-36 -28q-9 -10 -16 -27t-4 -41q4 -22 16 -39q12 -16 33 -25q15 -4 34 -8t38 -4q11 0 22 1t23 3q32 4 58 15q25 10 37 19l43 -79
q-24 -19 -54 -32q-29 -13 -70 -20q-15 -2 -30 -3h-29v0z" />
    <glyph glyph-name="five" unicode="5" horiz-adv-x="675" 
d="M452 -23q-35 0 -65 17q-29 17 -50 50l-5 10l8 -1q-5 -8 -9 -13q-4 -6 -8 -10v0q-22 -26 -50 -39q-28 -14 -60 -14q-31 0 -61 16q-30 15 -52 42q-16 20 -27 46t-15 56v0q-2 11 -3 24v26q0 49 11 106q9 39 23 80q14 40 35 85q20 45 48 94q27 49 63 106l-18 18l68 69l11 -11
q5 -6 13 -12l6 -6q4 -3 8 -7q30 -28 70 -66q39 -39 79 -89q48 -62 83 -126q34 -64 56 -133q15 -46 15 -98q0 -8 -1 -17q0 -8 -1 -15q-4 -35 -15 -67q-12 -33 -29 -56q-23 -30 -56 -48q-33 -17 -71 -17h-1v0zM381 253q0 -14 1 -32q2 -18 6 -37q3 -20 9 -39q5 -18 13 -34
q9 -16 19 -26q11 -10 24 -12q31 1 50 26q12 18 19 44q6 26 6 55q0 16 -2 34t-8 34q-18 54 -43 102q-24 48 -53 88q-28 41 -58 75t-58 61q-30 -51 -54 -94q-23 -43 -41 -81q-17 -39 -30 -75q-12 -35 -19 -70q-5 -22 -8 -45q-2 -23 -2 -41q0 -29 6 -53q6 -23 18 -38
q9 -9 20 -15q11 -5 17 -5q42 0 65 78q6 19 10 37q5 18 8 32q3 17 5 32z" />
    <glyph glyph-name="six" unicode="6" horiz-adv-x="576" 
d="M52 13v3q0 3 1 5v-1q1 5 8 23t19 45t30 61t41 70q26 38 54 73q28 36 58 64q-30 3 -57 12q-26 9 -47 24t-36 34q-14 20 -21 42q-7 26 -7 53q0 44 21 85q22 40 59 70q27 20 62 33q35 14 70 16q4 1 9 1h8q36 0 72 -10q35 -11 70 -31l-49 -85q-26 16 -49 23q-23 6 -44 6
q-26 0 -50 -9q-25 -9 -40 -20q-21 -17 -31 -37q-11 -20 -11 -42q0 -11 3 -25q4 -8 12 -16t20 -14q12 -7 27 -11q16 -4 34 -4q22 -1 46 3q24 3 46 7q23 4 43 10q19 5 33 9l11 4v-1q5 2 13 5t13 4l29 -92q-7 -4 -16 -7q-9 -2 -20 -6l1 1q-45 -17 -84 -44q-38 -26 -71 -57
q-32 -31 -59 -66q-26 -35 -47 -68q-22 -33 -37 -64q-16 -30 -26 -53q-10 -24 -15 -38t-6 -14z" />
    <glyph glyph-name="seven" unicode="7" horiz-adv-x="632" 
d="M278 -20q0 108 -21 204t-54 181q-33 84 -75 158t-84 141l81 50q30 -47 55 -91q26 -43 47 -85t39 -82t33 -80q5 -15 9 -26t7 -22q4 -11 7 -22q4 -12 7 -26q20 64 45 129q24 64 49 122q25 57 50 105q24 47 43 78l81 -50q-23 -44 -48 -93q-25 -48 -49 -101q-24 -52 -46 -109
t-39 -118t-28 -127q-10 -66 -12 -136h-97v0z" />
    <glyph glyph-name="eight" unicode="8" horiz-adv-x="662" 
d="M388 702q0 -107 21 -202q21 -94 54 -178q34 -83 76 -157q42 -73 84 -139l-81 -50q-30 46 -56 90q-25 43 -47 84q-21 42 -39 82q-18 39 -32 79q-5 14 -9 25q-5 12 -8 22q-3 11 -7 22q-3 12 -7 26q-20 -64 -44 -127q-25 -64 -50 -121t-49 -104t-44 -78l-81 50q23 44 48 92
t49 99q25 52 47 109q22 56 39 117q17 60 27 125q11 65 12 134h97v0z" />
    <glyph glyph-name="nine" unicode="9" horiz-adv-x="538" 
d="M161 619q-20 -34 -25 -76q-7 -71 91 -81q39 -4 84 6q-2 60 -12 104q-3 15 -9 28q-7 17 -15 30q-21 32 -51 32q-37 0 -63 -43v0zM345 129q-33 126 -34 241q-106 -18 -183 29q-86 52 -72 158q7 54 32 100q27 52 68 79q42 27 92 22q50 -7 85 -43q48 -49 61 -156q5 -40 6 -93
q1 -21 0 -46v-22v-21q-1 -67 25 -187t48 -145l-28 -36q-26 -34 -31 -41q-38 40 -69 161v0z" />
    <glyph glyph-name="uni0660" unicode="&#x660;" horiz-adv-x="441" 
d="M76 254q0 31 11 59q12 27 33 48q20 20 48 32q27 12 59 12q31 0 58 -12q28 -12 48 -32q21 -21 33 -48q12 -28 12 -59q0 -32 -12 -59t-33 -48q-20 -20 -48 -32q-27 -12 -58 -12q-32 0 -59 12q-28 12 -48 32q-21 21 -33 48q-11 27 -11 59v0zM148 254q0 -16 6 -30
q7 -14 17 -25q11 -11 25 -17q15 -6 31 -6t30 6q15 6 25 17q11 11 17 25t6 30t-6 31q-6 14 -17 25q-10 10 -25 17q-14 6 -30 6t-31 -6q-14 -7 -25 -17q-10 -11 -17 -25q-6 -15 -6 -31v0z" />
    <glyph glyph-name="uni0661" unicode="&#x661;" horiz-adv-x="295" 
d="M154 1q0 87 -3 173q-3 85 -13 164q-11 79 -31 148q-20 68 -53 121l74 47q36 -58 61 -135q24 -77 37 -174q5 -42 8 -86q4 -45 6 -89q2 -45 2 -87q1 -43 1 -82h-89v0z" />
    <glyph glyph-name="uni0662" unicode="&#x662;" horiz-adv-x="506" 
d="M437 664q0 -1 1 -9t3 -21q1 -12 2 -28q1 -17 0 -34q-2 -104 -48 -158v0q-22 -27 -54 -41q-31 -13 -69 -13q-21 0 -39 3q-17 2 -34 9l2 -12l2 -12q5 -42 8 -87q4 -44 6 -88t2 -87q1 -43 1 -82h-89q0 71 -1 141t-7 136t-17 126q-12 61 -32 112q-9 23 -20 45q-10 22 -24 45
l75 48q7 -12 13 -24l12 -24q6 -13 12 -27t14 -31q10 -24 20 -42q10 -19 23 -33t31 -21q17 -8 42 -8q18 0 32 6q13 5 23 17q9 10 14 23t9 28q3 14 4 30q2 16 2 30q0 19 -2 37t-5 30z" />
    <glyph glyph-name="uni0663" unicode="&#x663;" horiz-adv-x="641" 
d="M579 669q7 -39 11 -71q4 -33 4 -60q0 -85 -36 -129q-17 -20 -40 -31q-24 -10 -52 -10q-11 0 -24 2q-12 3 -25 9t-26 16q-12 11 -23 27l-9 -13q-22 -24 -46 -37q-25 -12 -60 -12q-17 0 -29 2q-13 2 -26 7q1 -6 1 -11l2 -10q6 -43 9 -87t5 -88t2 -86q1 -43 1 -83h-88
q0 19 1 38v38q0 64 -5 126q-4 62 -13 119q-8 58 -22 110q-13 53 -31 99q-1 1 -3 6q0 2 -1 4q-7 16 -15 33t-19 33l81 47q3 -5 7 -12q4 -8 9 -17q4 -9 9 -18q4 -10 9 -19q10 -21 21 -45q12 -27 21 -46t19 -30q9 -12 22 -17t33 -5q15 0 23 4q8 5 15 14q13 14 20 41t8 63v17
q-1 12 -2 26q0 13 -1 24q-1 12 -1 14l88 11v-4v0v-5q1 -4 2 -15t2 -26q3 -27 8 -57q4 -31 12 -54q5 -15 11 -25q6 -9 11 -13q6 -5 10 -6t7 -1q11 0 16 3q6 3 8 6t5 8t5 14q3 8 4 21q2 13 2 31q0 19 -3 47t-10 66z" />
    <glyph glyph-name="uni0664" unicode="&#x664;" horiz-adv-x="560" 
d="M354 332q-26 0 -52 4q-26 5 -46 13q-15 7 -28 15q-14 9 -25 19l4 -31q6 -43 10 -87q3 -44 5 -88q1 -44 2 -86q1 -43 1 -83h-89q0 87 -3 173t-14 164q-10 79 -30 148q-20 68 -53 121l74 47q15 -26 29 -54t24 -56q5 14 13 29t19 27v0q25 30 61 48t76 19q30 2 63 -8t65 -31
q20 -13 32 -24t17 -15l6 -5l-64 -62l-5 5v0l-12 11q-13 11 -19 14t-24 14q-17 11 -27 10q-9 -1 -28 3v0q-21 -1 -41 -11q-19 -9 -32 -25q-8 -9 -15 -25q-6 -15 -4 -37q4 -20 15 -35t30 -23q13 -4 31 -7q17 -3 34 -3h20q10 1 21 3q30 4 53 13q23 10 34 18l39 -72
q-22 -17 -49 -29t-64 -18q-14 -2 -27 -3h-27v0z" />
    <glyph glyph-name="uni0665" unicode="&#x665;" horiz-adv-x="614" 
d="M411 -1q-32 0 -59 16t-46 45l-5 9l8 -1q-4 -7 -8 -12t-7 -9v1q-20 -24 -45 -36q-26 -13 -55 -13t-56 14t-47 39q-15 18 -25 41q-9 24 -13 52v0q-2 10 -2 21q-1 12 -1 24q0 45 11 96q8 36 20 73q13 37 31 78q19 40 44 85t58 96l-17 17l63 62q4 -5 9 -10t11 -10q4 -3 7 -6
l6 -6q28 -26 64 -61t72 -81q44 -55 75 -114q32 -58 52 -121q13 -42 13 -89q0 -7 -1 -15q0 -7 -1 -14q-3 -31 -14 -61q-10 -29 -25 -51q-21 -27 -51 -43t-65 -16h-1v0zM346 250q0 -12 1 -29q2 -16 5 -34q4 -17 9 -35q5 -17 12 -31q8 -14 17 -24q10 -9 22 -10q28 1 45 23
q11 16 17 40t6 50q0 15 -2 31t-7 31q-16 50 -39 93q-22 43 -48 80t-53 68t-52 55q-28 -46 -50 -85q-21 -39 -37 -74t-27 -68q-11 -32 -18 -63q-4 -21 -7 -41q-2 -21 -2 -38q0 -27 6 -48t16 -35q8 -8 18 -13t16 -5q38 0 59 71q5 17 9 34q4 16 7 29q3 15 5 29z" />
    <glyph glyph-name="uni0666" unicode="&#x666;" horiz-adv-x="524" 
d="M47 33v3q0 2 1 4v-1q1 5 7 21t18 41q11 24 27 55t38 64q22 35 48 67t53 57q-28 3 -52 11q-24 9 -43 22q-19 14 -32 31q-14 18 -19 38q-7 24 -7 49q0 39 19 76q20 38 54 64q24 18 56 31q32 12 64 14q4 1 8 1h7q33 0 65 -10q33 -9 64 -28l-45 -76q-22 14 -43 20
q-22 5 -41 5q-23 0 -45 -8t-37 -18q-18 -15 -28 -33q-10 -19 -10 -39q0 -10 4 -23q2 -7 10 -14q7 -7 18 -13t25 -9q14 -4 30 -4q21 -1 42 2q22 3 42 7q21 4 39 9t30 9l10 3v-1q5 2 12 4q7 3 12 4l26 -84q-7 -3 -15 -5q-8 -3 -17 -6v0q-41 -15 -76 -39t-64 -52
q-30 -29 -54 -60q-24 -32 -43 -62q-19 -31 -34 -58q-14 -28 -23 -49t-14 -34q-4 -12 -5 -13z" />
    <glyph glyph-name="uni0667" unicode="&#x667;" horiz-adv-x="575" 
d="M253 3q0 98 -19 185t-49 164q-31 77 -69 144q-38 68 -76 128l73 45q28 -42 51 -82q23 -39 42 -78q20 -38 36 -74q16 -37 30 -73q4 -13 8 -23q4 -11 7 -20q3 -10 6 -21q3 -10 6 -23q18 58 41 117q22 58 45 111q22 52 44 95t40 71l74 -45q-21 -40 -43 -84q-23 -44 -45 -92
t-42 -100q-20 -51 -36 -107q-15 -55 -25 -115t-11 -123h-88v0z" />
    <glyph glyph-name="uni0668" unicode="&#x668;" horiz-adv-x="601" 
d="M353 658q0 -97 19 -183t49 -162q31 -76 69 -143t76 -126l-73 -45q-28 41 -51 81q-23 39 -42 77q-20 37 -36 74q-16 36 -30 72q-4 13 -8 23t-7 20l-6 20t-6 23q-19 -58 -41 -116t-45 -109q-22 -52 -44 -95q-23 -43 -40 -70l-74 45q21 40 43 83q23 43 45 91q22 47 42 98
t36 106q15 56 25 115t11 121h88v0z" />
    <glyph glyph-name="uni0669" unicode="&#x669;" horiz-adv-x="489" 
d="M146 582q-18 -31 -22 -69q-7 -65 82 -73q36 -4 77 5q-3 54 -11 94q-4 14 -8 26q-7 15 -14 27q-19 29 -47 29q-33 0 -57 -39v0zM313 137q-30 114 -30 219q-97 -17 -167 26q-78 47 -65 144q6 49 29 91q24 47 62 72t84 19q45 -6 77 -39q43 -44 55 -142q5 -36 6 -85v-41v-20
l-1 -19q0 -61 23 -169q24 -110 44 -133l-25 -33q-25 -31 -29 -36q-34 36 -63 146v0z" />
    <glyph glyph-name="uni066B" unicode="&#x66b;" horiz-adv-x="307" 
d="M-17 -96l215 482h64l-214 -482h-65v0z" />
    <glyph glyph-name="uni066C" unicode="&#x66c;" horiz-adv-x="228" 
d="M95 11q-14 0 -26 5t-22 15q-9 9 -14 21q-6 13 -6 27q0 16 6 28q6 13 17 22q10 9 24 14q13 5 28 5q41 1 65 -30q21 -27 22 -70q5 -126 -148 -202l-26 47q115 55 113 126q-15 -8 -33 -8v0z" />
    <glyph glyph-name="uni06F0" unicode="&#x6f0;" horiz-adv-x="436" 
d="M76 263q0 31 11 59q12 27 33 48q20 20 48 32q27 12 59 12q31 0 58 -12q28 -12 48 -32q21 -21 33 -48q12 -28 12 -59q0 -32 -12 -59t-33 -48q-20 -20 -48 -32q-27 -12 -58 -12q-32 0 -59 12q-28 12 -48 32q-21 21 -33 48q-11 27 -11 59v0zM148 263q0 -16 6 -30
q7 -15 17 -25q11 -11 25 -17q15 -6 31 -6t30 6q15 6 25 17q11 10 17 25q6 14 6 30t-6 31q-6 14 -17 25q-10 10 -25 17q-14 6 -30 6t-31 -6q-14 -7 -25 -17q-10 -11 -17 -25q-6 -15 -6 -31v0z" />
    <glyph glyph-name="uni06F1" unicode="&#x6f1;" horiz-adv-x="322" 
d="M154 1q0 87 -3 173q-3 85 -13 164q-11 79 -31 148q-20 68 -53 121l74 47q36 -58 61 -135q24 -77 37 -174q5 -42 8 -86q4 -45 6 -89q2 -45 2 -87q1 -43 1 -82h-89v0z" />
    <glyph glyph-name="uni06F2" unicode="&#x6f2;" horiz-adv-x="497" 
d="M437 664q0 -1 1 -9t3 -21q1 -12 2 -28q1 -17 0 -34q-2 -104 -48 -158v0q-22 -27 -54 -41q-31 -13 -69 -13q-21 0 -39 3q-17 2 -34 9l2 -12l2 -12q5 -42 8 -87q4 -44 6 -88t2 -87q1 -43 1 -82h-89q0 71 -1 141t-7 136t-17 126q-12 61 -32 112q-9 23 -20 45q-10 22 -24 45
l75 48q7 -12 13 -24l12 -24q6 -13 12 -27t14 -31q10 -24 20 -42q10 -19 23 -33t31 -21q17 -8 42 -8q18 0 32 6q13 5 23 17q9 10 14 23t9 28q3 14 4 30q2 16 2 30q0 19 -2 37t-5 30z" />
    <glyph glyph-name="uni06F3" unicode="&#x6f3;" horiz-adv-x="646" 
d="M579 669q7 -39 11 -71q4 -33 4 -60q0 -85 -36 -129q-17 -20 -40 -31q-24 -10 -52 -10q-11 0 -24 2q-12 3 -25 9t-26 16q-12 11 -23 27l-9 -13q-22 -24 -46 -37q-25 -12 -60 -12q-17 0 -29 2q-13 2 -26 7q1 -6 1 -11l2 -10q6 -43 9 -87t5 -88t2 -86q1 -43 1 -83h-88
q0 19 1 38v38q0 64 -5 126q-4 62 -13 119q-8 58 -22 110q-13 53 -31 99q-1 1 -3 6q0 2 -1 4q-7 16 -15 33t-19 33l81 47q3 -5 7 -12q4 -8 9 -17q4 -9 9 -18q4 -10 9 -19q10 -21 21 -45q12 -27 21 -46t19 -30q9 -12 22 -17t33 -5q15 0 23 4q8 5 15 14q13 14 20 41t8 63v17
q-1 12 -2 26q0 13 -1 24q-1 12 -1 14l88 11v-4v0v-5q1 -4 2 -15t2 -26q3 -27 8 -57q4 -31 12 -54q5 -15 11 -25q6 -9 11 -13q6 -5 10 -6t7 -1q11 0 16 3q6 3 8 6t5 8t5 14q3 8 4 21q2 13 2 31q0 19 -3 47t-10 66z" />
    <glyph glyph-name="uni06F4" unicode="&#x6f4;" horiz-adv-x="560" 
d="M354 332q-26 0 -52 4q-26 5 -46 13q-15 7 -28 15q-14 9 -25 19l4 -31q6 -43 10 -87q3 -44 5 -88q1 -44 2 -86q1 -43 1 -83h-89q0 87 -3 173t-14 164q-10 79 -30 148q-20 68 -53 121l74 47q15 -26 29 -54t24 -56q5 14 13 29t19 27v0q25 30 61 48t76 19q30 2 63 -8t65 -31
q20 -13 32 -24t17 -15l6 -5l-64 -62l-5 5v0l-12 11q-13 11 -19 14t-24 14q-17 11 -27 10q-9 -1 -28 3v0q-21 -1 -41 -11q-19 -9 -32 -25q-8 -9 -15 -25q-6 -15 -4 -37q4 -20 15 -35t30 -23q13 -4 31 -7q17 -3 34 -3h20q10 1 21 3q30 4 53 13q23 10 34 18l39 -72
q-22 -17 -49 -29t-64 -18q-14 -2 -27 -3h-27v0z" />
    <glyph glyph-name="uni06F5" unicode="&#x6f5;" horiz-adv-x="614" 
d="M411 -1q-32 0 -59 16t-46 45l-5 9l8 -1q-4 -7 -8 -12t-7 -9v1q-20 -24 -45 -36q-26 -13 -55 -13t-56 14t-47 39q-15 18 -25 41q-9 24 -13 52v0q-2 10 -2 21q-1 12 -1 24q0 45 11 96q8 36 20 73q13 37 31 78q19 40 44 85t58 96l-17 17l63 62q4 -5 9 -10t11 -10q4 -3 7 -6
l6 -6q28 -26 64 -61t72 -81q44 -55 75 -114q32 -58 52 -121q13 -42 13 -89q0 -7 -1 -15q0 -7 -1 -14q-3 -31 -14 -61q-10 -29 -25 -51q-21 -27 -51 -43t-65 -16h-1v0zM346 250q0 -12 1 -29q2 -16 5 -34q4 -17 9 -35q5 -17 12 -31q8 -14 17 -24q10 -9 22 -10q28 1 45 23
q11 16 17 40t6 50q0 15 -2 31t-7 31q-16 50 -39 93q-22 43 -48 80t-53 68t-52 55q-28 -46 -50 -85q-21 -39 -37 -74t-27 -68q-11 -32 -18 -63q-4 -21 -7 -41q-2 -21 -2 -38q0 -27 6 -48t16 -35q8 -8 18 -13t16 -5q38 0 59 71q5 17 9 34q4 16 7 29q3 15 5 29z" />
    <glyph glyph-name="uni06F6" unicode="&#x6f6;" horiz-adv-x="524" 
d="M47 33v3q0 2 1 4v-1q1 5 7 21t18 41q11 24 27 55t38 64q22 35 48 67t53 57q-28 3 -52 11q-24 9 -43 22q-19 14 -32 31q-14 18 -19 38q-7 24 -7 49q0 39 19 76q20 38 54 64q24 18 56 31q32 12 64 14q4 1 8 1h7q33 0 65 -10q33 -9 64 -28l-45 -76q-22 14 -43 20
q-22 5 -41 5q-23 0 -45 -8t-37 -18q-18 -15 -28 -33q-10 -19 -10 -39q0 -10 4 -23q2 -7 10 -14q7 -7 18 -13t25 -9q14 -4 30 -4q21 -1 42 2q22 3 42 7q21 4 39 9t30 9l10 3v-1q5 2 12 4q7 3 12 4l26 -84q-7 -3 -15 -5q-8 -3 -17 -6v0q-41 -15 -76 -39t-64 -52
q-30 -29 -54 -60q-24 -32 -43 -62q-19 -31 -34 -58q-14 -28 -23 -49t-14 -34q-4 -12 -5 -13z" />
    <glyph glyph-name="uni06F7" unicode="&#x6f7;" horiz-adv-x="587" 
d="M253 3q0 98 -19 185t-49 164q-31 77 -69 144q-38 68 -76 128l73 45q28 -42 51 -82q23 -39 42 -78q20 -38 36 -74q16 -37 30 -73q4 -13 8 -23q4 -11 7 -20q3 -10 6 -21q3 -10 6 -23q18 58 41 117q22 58 45 111q22 52 44 95t40 71l74 -45q-21 -40 -43 -84q-23 -44 -45 -92
t-42 -100q-20 -51 -36 -107q-15 -55 -25 -115t-11 -123h-88v0z" />
    <glyph glyph-name="uni06F8" unicode="&#x6f8;" horiz-adv-x="606" 
d="M353 658q0 -97 19 -183t49 -162q31 -76 69 -143t76 -126l-73 -45q-28 41 -51 81q-23 39 -42 77q-20 37 -36 74q-16 36 -30 72q-4 13 -8 23t-7 20l-6 20t-6 23q-19 -58 -41 -116t-45 -109q-22 -52 -44 -95q-23 -43 -40 -70l-74 45q21 40 43 83q23 43 45 91q22 47 42 98
t36 106q15 56 25 115t11 121h88v0z" />
    <glyph glyph-name="uni06F9" unicode="&#x6f9;" horiz-adv-x="493" 
d="M148 581q-18 -31 -22 -69q-7 -65 82 -74q36 -3 76 6q-2 54 -11 94q-3 14 -8 26q-6 15 -13 27q-20 29 -47 29q-34 0 -57 -39v0zM315 136q-30 114 -31 219q-96 -17 -166 26q-78 47 -65 144q6 49 28 91q25 46 63 71t84 20q45 -6 77 -39q43 -44 55 -142q5 -36 6 -85v-41v-20
l-1 -19q0 -61 23 -170q24 -109 43 -132l-25 -33q-24 -31 -28 -37q-34 37 -63 147v0z" />
  </font>
</defs>
</svg>
